# xmcd
#
# Track frame offsets:
#	150
#	13426
#	36805
#	59129
#	76771
#	94786
#	109086
#	126001
#	142055
#	161533
#	180025
#	197366
#
# Disc length: 2865 seconds
#
# Revision: 1
# Processed by: cddbd v1.5.2PL0 Copyright (c) Steve Scherf et al.
# Submitted via: Broken X Disk Manager 4.11.2362
#
DISCID=990b2f0c
DTITLE=INTERPRETES VARIOS - MUSIC UP VOL 6
DYEAR=1998
DGENRE=A Cappella
TTITLE0=BOMBALURINA - BIKINI A LUNARES AMARILLOS
TTITLE1=VILLAGE PEOPLE - NO PUEDES PARAR LA MUSICA
TTITLE2=SALT ´N´PEPA - TWIST and GRITOS
TTITLE3=TEARS FOR FEARS - CAMBIO
TTITLE4=STEREO MC´s - SALTA
TTITLE5=KC and THE SUNSHINE BAND - HAZLO ESTA NOCHE
TTITLE6=CE CE PENISTON - FINALMENTE
TTITLE7=SWING OUT SISTER - TU EN MI MENTE
TTITLE8=DESIRELESS - VIAJE, VIAJE
TTITLE9=DEXY´S MIDNIGHT RUNNERS - VAMOS EILEEN
TTITLE10=LÁBORIGENE RAFT - YAKA DANSE
TTITLE11=PM DAWN - PERDIDOS EN LA BRISA DE LA MEMORIA
EXTD=
EXTT0=
EXTT1=
EXTT2=
EXTT3=
EXTT4=
EXTT5=
EXTT6=
EXTT7=
EXTT8=
EXTT9=
EXTT10=
EXTT11=
PLAYORDER=
